<svg width="600" height="800" viewBox="0 0 600 800" fill="none" xmlns="http://www.w3.org/2000/svg">
<path d="M450 300.5H150H138V148.5L150 120.5C160.781 83.6652 171.302 71.9779 191 53L255.5 22L320 14L390 38.5L441 90.5L461 159.5V237V300.5H450Z" fill="#1669C9" stroke="black"/>
<path d="M211 301V162C218.017 140.904 223.914 130.689 237.5 115C258.263 98.3386 268.83 92.8335 286 89H325.5C348.202 98.497 356.227 104.246 365 115C373.773 125.754 383.505 139.08 388.5 154.5V301H211Z" fill="white" stroke="black"/>
<path d="M30 315H576.5V782H23V315H30Z" fill="#1669C9" stroke="black"/>
<path d="M300 0C396.65 0 475 78.35 475 175V300H550C577.637 300 600 322.363 600 350V750C600 777.637 577.637 800 550 800H50C22.3625 800 0 777.637 0 750V350C0 322.363 22.3625 300 50 300H125V175C125 78.35 203.35 0 300 0ZM25 700V750C25 763.8 36.2 775 50 775H550C563.8 775 575 763.8 575 750V700H25ZM25 425V675H575V425H25ZM50 325C36.2 325 25 336.188 25 350V400H575V350C575 336.188 563.8 325 550 325H50ZM300 25C217.162 25 150 92.1625 150 175V300H200V175C200 119.775 244.775 75 300 75C355.225 75 400 119.775 400 175V300H450V175C450 92.1625 382.838 25 300 25ZM300 100C258.588 100 225 133.575 225 175V300H375V175C375 133.575 341.412 100 300 100Z" fill="black"/>
<path d="M299 459C270.482 464.357 257.928 472.553 247 504.5C251.251 534.355 259.301 544.898 277.5 559.5V629C296.54 643.044 306.211 643.324 321.5 629V559.5C344.284 539.106 351.854 527.153 352 504.5C345.656 470.132 331.247 464.636 299 459Z" fill="white" stroke="black"/>
<path d="M289.5 449C324.025 449 352 476.975 352 511.5C352 531.887 342.112 549.837 327 561.237V611.5C327 632.2 310.212 649 289.5 649C268.788 649 252 632.2 252 611.5V561.237C236.888 549.825 227 531.887 227 511.5C227 476.975 254.975 449 289.5 449ZM289.5 474C268.788 474 252 490.775 252 511.5C252 527.8 262.463 541.525 277 546.7V611.5C277 614.263 277.893 616.814 279.406 618.882C281.679 621.987 285.351 624 289.5 624C296.412 624 302 618.412 302 611.5V546.7C309.919 543.881 316.629 538.528 321.098 531.602C324.832 525.813 327 518.926 327 511.5C327 490.775 310.212 474 289.5 474Z" fill="black"/>
</svg>
