<!DOCTYPE svg PUBLIC "-//W3C//DTD SVG 1.1//EN" "http://www.w3.org/Graphics/SVG/1.1/DTD/svg11.dtd">
<svg xmlns="http://www.w3.org/2000/svg" viewBox="0 0 512 512">
<path fill="#0e2b6f" stroke="#0e2b6f" d="M109.5.696C57.38 7.965 16.097 45.797 2.775 98.5l-2.275 9v297l2.275 9c12.6 49.846 47.783 84.454 97.725 96.13 7.625 1.782 14.942 1.87 156 1.87h148l11-2.865c47.865-12.468 82.063-47.24 93.565-95.135 1.056-4.4 1.924-9.462 1.928-11.25.004-1.788.457-3.25 1.007-3.25.662 0 .995-48.74.985-144.25-.01-93.499-.357-143.722-.985-142.75-.728 1.127-.975.629-.992-2-.012-1.925-.887-7.1-1.943-11.5C497.587 50.703 463.55 16.037 415.5 3.206l-10-2.671L259 .406c-80.575-.071-147.85.059-149.5.29M.487 256c0 79.475.118 111.988.263 72.25.145-39.737.145-104.762 0-144.5C.605 144.013.487 176.525.487 256M206.5 151.342c-34.476 11.487-43.881 53.25-17.361 77.093 26.263 23.612 68.097 8.424 74.151-26.921 3.27-19.089-7.795-39.379-26.024-47.721-7.992-3.657-23.45-4.889-30.766-2.451m102.605 49.241c-13.738 3.694-24.76 13.574-29.877 26.781-1.175 3.033-1.752 9.202-2.165 23.136l-.563 19-6 .524c-7.158.626-9.949 2.025-12.55 6.29-3.057 5.013-2.999 74.252.066 79.212 4.069 6.583 3.023 6.474 62.135 6.47 60.825-.004 58.025.381 61.965-8.526 3.266-7.382 2.478-72.437-.936-77.222-3.132-4.392-5.603-5.605-12.68-6.224l-6-.524-.5-19.5c-.497-19.393-.518-19.537-3.693-26.241-8.705-18.376-29.91-28.365-49.202-23.176m.831 23.167c-3.548 1.799-6.463 4.248-8.43 7.082l-3.006 4.332-.315 17.438-.314 17.437 21.814-.269 21.815-.27.294-14c.349-16.57-.596-20.857-5.93-26.917-6.807-7.733-16.607-9.56-25.928-4.833m-108.875 35.337c-38.24 4.948-67.405 34.967-72.189 74.299-1.43 11.765-.267 16.482 5.483 22.232 6.366 6.366 6.405 6.37 62.846 6.376l50.701.006-1.929-4.25c-1.796-3.956-1.929-6.844-1.929-41.75 0-41.712.097-42.388 7.144-49.684l3.076-3.183-5.382-1.564c-11.485-3.336-32.709-4.438-47.821-2.482" fill-rule="evenodd"/>
<path fill="#04256c" stroke="#04256c" d="M111.845 1.123C56.795 7.551 13.503 48.016 2.315 103.5c-2.35 11.653-2.848 290.553-.54 302.723 10.316 54.418 49.584 93.686 104.002 104.002 12.183 2.31 292.217 1.81 303.223-.541 40.236-8.595 72.007-32.787 89.907-68.461 5.985-11.93 12.093-33.708 12.093-43.122 0-2.191.45-4.261 1-4.601.659-.407 1-47.733 1-138.726 0-75.959-.329-137.778-.731-137.376-.402.402-1.27-3.461-1.929-8.584C503.597 56.409 464.889 15.347 410 2.371 401.589.383 127.992-.763 111.845 1.123M.486 256c0 76.175.119 107.337.264 69.25.145-38.088.145-100.413 0-138.5C.605 148.662.486 179.825.486 256m209.622-105.918c-23.403 4.596-40.295 28.878-36.165 51.988 7.838 43.859 66.042 52.113 85.785 12.166 16.291-32.963-13.344-71.279-49.62-64.154m96.379 50.661C284.369 208.638 276 223.412 276 254.56v14.192l-5.541.46c-5.876.487-9.347 2.418-12.897 7.173-1.995 2.672-2.062 3.953-2.062 39.615 0 51.891-7.42 46.5 64 46.5 71.548 0 64.5 5.071 64.5-46.413 0-32.783-.148-35.894-1.855-39.078-2.369-4.417-9.008-8.009-14.802-8.009H363v-15.79c0-23.07-2.923-32.118-13.656-42.269-11.199-10.591-29.533-14.954-42.857-10.198m3.413 23.194c-9.662 5.252-11.887 11.014-11.894 30.813L298 269h43v-15.843c0-18.364-1.254-22.262-8.89-27.641-5.567-3.921-16.473-4.697-22.21-1.579m-110.4 34.778c-37.855 5.235-68.625 38.463-71.171 76.857-.678 10.225.34 14.693 4.466 19.596 5.792 6.884 4.884 6.786 62.955 6.81 28.738.012 52.25-.225 52.25-.528 0-.302-.787-1.989-1.75-3.75-1.581-2.891-1.75-6.919-1.75-41.7 0-42.659-.197-41.265 7.035-49.86l2.631-3.126-2.833-1.091c-8.635-3.324-37.898-5.136-51.833-3.208" fill-rule="evenodd"/>
<path fill="#041d66" stroke="#041d66" d="M347.5 143c-89.426 89.428-114.469 115-112.622 115 3.526 0 20.122 4.049 20.122 4.909 0 .408-1.185 1.833-2.632 3.167-7.075 6.515-7.35 8.384-7.336 49.924.011 35.211.133 37.766 1.99 41.859 1.088 2.398 1.978 4.554 1.978 4.791 0 .238-23.962.301-53.25.141l-53.25-.291-4.568-2.686-4.568-2.685-52.682 52.689C51.707 438.797 28 462.989 28 463.578c0 .589 4.107 5.19 9.127 10.224 18.951 19.006 41.486 30.922 67.912 35.912 14.568 2.75 287.354 2.75 301.922 0 53.169-10.039 92.714-49.584 102.753-102.753 2.75-14.568 2.75-287.354 0-301.922-4.405-23.327-14.633-44.575-29.435-61.147C473.51 36.314 464.677 28 463.395 28c-.494 0-52.647 51.75-115.895 115M312 199.142c-16.853 2.784-31.074 16.203-34.939 32.97-.557 2.413-1.023 11.701-1.037 20.638L276 269l-5.25.004c-6.201.004-10.814 2.427-13.775 7.237-3.134 5.09-2.608 76.071.596 80.437 4.732 6.448 3.47 6.319 61.929 6.319 59.08 0 57.508.174 62.23-6.895 3.336-4.993 3.575-74.449.275-79.861-2.91-4.774-7.553-7.233-13.663-7.237l-5.158-.004-.342-19.25c-.34-19.141-.36-19.287-3.439-25.75-6.331-13.286-18.728-22.71-32.903-25.014-6.758-1.098-6.92-1.096-14.5.156m-1.637 25.323c-9.912 5.019-12.303 11.082-12.339 31.285L298 269h43.172l-.336-16.326c-.327-15.886-.41-16.439-3.095-20.492-6.347-9.584-17.49-12.725-27.378-7.717" fill-rule="evenodd"/>
</svg>