<svg width="1164" height="1059" viewBox="0 0 1164 1059" fill="none" xmlns="http://www.w3.org/2000/svg">
<rect width="1164" height="1059" fill="black"/>
<rect width="1164" height="1059" fill="#1868D3"/>
<path d="M655.061 196C688.532 196 715.666 229.164 715.666 270.074V396H841.592C882.502 396 915.666 423.135 915.666 456.606V602.061C915.666 635.532 882.502 662.667 841.592 662.667H715.666V788.593C715.666 829.502 688.532 862.667 655.061 862.667H509.605C476.134 862.667 449 829.503 449 788.593V662.667H323.073C282.163 662.667 249 635.532 249 602.061V456.606C249 423.135 282.163 396 323.073 396H449V270.074C449 229.164 476.134 196 509.605 196H655.061ZM515.666 462.667H315.666V596H515.666V796H649V596H849V462.667H649V262.667H515.666V462.667Z" fill="white"/>
<path d="M654.5 448H854.5V601.5H654.5V807.5H503.5V601.5H310V448H503.5V250H654.5V448Z" fill="white"/>
</svg>
