<!DOCTYPE svg PUBLIC "-//W3C//DTD SVG 1.1//EN" "http://www.w3.org/Graphics/SVG/1.1/DTD/svg11.dtd">
<svg xmlns="http://www.w3.org/2000/svg" viewBox="0 0 512 512">
<path fill="#fcfbfb" stroke="#fcfbfb" d="M224.564 7.625C88.464 25.055-9.177 150.31 7.536 286.03c16.858 136.904 140.979 234.475 277.905 218.458 114.382-13.38 205.667-104.665 219.047-219.047C520.504 148.522 422.928 24.393 286.03 7.536c-15.401-1.897-46.312-1.852-61.466.089M339 138.567c-14.299 3.096-30.157 14.881-36.242 26.933-3.116 6.17-34.06 82.558-33.594 82.929.185.147 8.656 5.173 18.825 11.169 22.611 13.332 29.554 19.615 35.899 32.488 8.638 17.523 9.239 36.036 1.702 52.499-1.364 2.978-2.167 5.422-1.785 5.43.382.009.181.346-.448.75-1.635 1.051-9.39 11.536-8.897 12.029.227.226 3.373-.574 6.992-1.778 12.159-4.046 23.891-13.828 29.868-24.901 6.673-12.363 52.68-129.031 53.768-136.349 5.563-37.402-28.845-69.265-66.088-61.199m.105 9.016c-12.275 3.3-23.453 12.221-28.943 23.097-5.648 11.187-22.028 53.32-20.73 53.32.687 0 19.968 7.573 42.848 16.828l41.6 16.828 9.191-22.578c14.088-34.607 15.185-38.866 13.022-50.541-4.914-26.535-31.537-43.799-56.988-36.954M144.5 203.305c-40.372 13.471-51.19 64.102-19.806 92.695 5.555 5.062 104.538 64.733 121.473 73.23 46.129 23.144 95.195-26.718 72.75-73.931-6.602-13.888-10.317-16.604-74.876-54.75-31.602-18.672-60.177-35.064-63.5-36.425-9.044-3.704-26.224-4.094-36.041-.819m11 6.82c-37.708 4.656-53.753 50.281-27.192 77.323 3.732 3.8 11.52 9.013 27.692 18.536 12.375 7.288 23.411 13.816 24.524 14.508 1.913 1.189 3.303-.901 25.394-38.173 13.441-22.679 22.99-39.793 22.476-40.284-.492-.469-11.694-7.212-24.894-14.984-28.376-16.709-33.922-18.664-48-16.926m159.579 114.458c.048 1.165.285 1.402.604.605.289-.722.253-1.585-.079-1.917-.332-.332-.568.258-.525 1.312m-49.266 41.1c.721.289 1.584.253 1.916-.079.332-.332-.258-.568-1.312-.525-1.165.048-1.402.285-.604.604m5.937-.021c.688.278 1.813.278 2.5 0 .688-.277.125-.504-1.25-.504s-1.937.227-1.25.504" fill-rule="evenodd"/>
<path fill="#fcb44c" stroke="#fcb44c" d="M237.5 6.584c-1.65.228-7.275.901-12.5 1.496-71.691 8.155-137.875 49.757-179.034 112.535C9.78 175.808-2.407 245.94 12.577 312.75 33.511 406.087 111.842 482.269 206 500.867c26.271 5.189 60.408 6.318 84.5 2.794C433.849 482.696 528.942 348.142 500.867 206 480.65 103.645 395.53 23.526 291 8.464c-10.794-1.555-46.727-2.818-53.5-1.88m99.068 131.948c-12.738 3.496-26.128 13.338-32.434 23.841C300.92 167.726 269 245.137 269 247.578c0 .645 8.212 6.053 18.25 12.016 21.755 12.925 30.248 20.486 36.125 32.157 11.025 21.896 8.392 47.952-6.72 66.506-5.24 6.433-5.096 6.579 3.627 3.668 13.932-4.65 26.242-15.049 32.462-27.425 3.773-7.506 50.404-123.972 51.833-129.455 10.246-39.339-28.597-77.328-68.009-66.513m-.068 10.291c-11.153 4.146-20.137 11.42-24.887 20.147-5.456 10.024-22.539 53.493-21.292 54.178.851.468 71.755 29.349 82.304 33.525.678.268 5.395-10.187 11.892-26.364 9.741-24.253 10.815-27.558 11.26-34.668 1.235-19.702-8.316-36.237-25.712-44.515-9.53-4.535-24.752-5.579-33.565-2.303m-187.25 52.694c-42.029 9.13-57.756 62.345-27.346 92.531 5.777 5.735 13.888 10.861 65.349 41.305 32.314 19.116 61.339 35.712 64.5 36.879 7.957 2.938 27.155 3.152 35.247.392 39.057-13.321 50.902-62.873 21.892-91.584-5.761-5.702-13.958-10.889-64-40.493-72.584-42.941-74.34-43.658-95.642-39.03m.563 9.953c-13.017 3.585-23.619 12.312-29.56 24.333-3.712 7.511-3.753 7.725-3.753 19.697 0 14.68 3.28 22.992 12.694 32.175 4.533 4.422 52.388 34.105 53.358 33.096.143-.149 10.628-17.801 23.3-39.226l23.04-38.955-19.196-11.38c-27.763-16.458-30.569-17.942-37.161-19.659-7.06-1.839-16.222-1.872-22.722-.081" fill-rule="evenodd"/>
<path fill="#ec942c" stroke="#ec942c" d="M237 7.013C60.998 21.505-45.535 207.721 31.911 365.5c60.945 124.161 210.933 175.533 334.054 114.417 149.412-74.167 186.378-268.993 74.387-392.045C389.026 31.477 311.975.839 237 7.013m0 46.998C108.661 67.378 25.361 191.505 61.988 314.798 96.878 432.241 231.605 491.93 342.5 439.075c125.384-59.761 155.308-223.816 59.071-323.861C359.227 71.193 296.391 47.825 237 54.011" fill-rule="evenodd"/>
<path fill="#d68625" stroke="#d68625" d="M437.975 166.25c27.812 55.593 28.039 122.296.606 178.25-61.9 126.255-227.85 153.679-327.068 54.049-5.348-5.37-7.598-7.22-5.534-4.549 24.995 32.346 70.598 60.091 114.069 69.399C373.165 496.184 504.67 349.44 455.05 201.163 449.756 185.342 434.036 153 431.64 153c-.161 0 2.689 5.963 6.335 13.25" fill-rule="evenodd"/>
</svg>