<svg width="500" height="650" viewBox="0 0 500 650" fill="none" xmlns="http://www.w3.org/2000/svg">
<path d="M32 27H327.5L467 177V622.5H32V27Z" fill="#9EC3E9" stroke="black"/>
<path d="M335.01 0L342.48 7.51953L492.48 157.52L500 164.99V650H0V0H335.01ZM50 50V600H450V200H300V50H50ZM197.51 200C237.51 200 272.51 235 272.51 275C272.51 305 257.52 329.98 232.52 342.48L275 417.48L300 375H350L300 460.01L350 550H300L275 504.98L250 550H200L252.49 460.01L189.99 350H175V425H125V200H197.51ZM175 250V300H200C215 300 225 290 225 275C225 260 215 250 200 250H175ZM350 150H414.99L350 85.0098V150Z" fill="#1E589D"/>
</svg>
