<svg width="775" height="803" viewBox="0 0 775 803" fill="none" xmlns="http://www.w3.org/2000/svg">
<path d="M475 3C488.261 3 500.979 8.26771 510.355 17.6445C519.732 27.0213 525 39.7392 525 53V103C525 116.261 519.732 128.979 510.355 138.355C500.979 147.732 488.261 153 475 153H460.25L528 220.75C542.069 234.802 549.982 253.865 550 273.75V353C550 359.63 547.366 365.989 542.678 370.678C537.989 375.366 531.63 378 525 378C518.37 378 512.011 375.366 507.322 370.678C502.634 365.989 500 359.63 500 353V328H50V628H325C331.63 628 337.989 630.634 342.678 635.322C347.366 640.011 350 646.37 350 653C350 659.63 347.366 665.989 342.678 670.678C337.989 675.366 331.63 678 325 678H50V728C50 734.63 52.6339 740.989 57.3223 745.678C62.0107 750.366 68.3696 753 75 753H400C406.63 753 412.989 755.634 417.678 760.322C422.366 765.011 425 771.37 425 778C425 784.63 422.366 790.989 417.678 795.678C412.989 800.366 406.63 803 400 803H75C55.1088 803 36.032 795.098 21.9668 781.033C7.90157 766.968 0 747.891 0 728V273.75C0.0175052 253.865 7.93075 234.802 22 220.75L89.75 153H75C61.7392 153 49.0213 147.732 39.6445 138.355C30.2677 128.979 25 116.261 25 103V53C25 39.7392 30.2677 27.0213 39.6445 17.6445C49.0213 8.26771 61.7392 3 75 3H475ZM160.25 153L57.25 256C54.933 258.336 53.0996 261.106 51.8555 264.152C50.6114 267.198 49.981 270.46 50 273.75V278H500V273.75C500.019 270.46 499.389 267.198 498.145 264.152C496.9 261.106 495.067 258.336 492.75 256L389.75 153H160.25ZM75 53V103H475V53H75Z" fill="#A6CDF6"/>
<path d="M350 449H300V399C300 392.37 297.366 386.011 292.678 381.322C287.989 376.634 281.63 374 275 374C268.37 374 262.011 376.634 257.322 381.322C252.634 386.011 250 392.37 250 399V449H200C193.37 449 187.011 451.634 182.322 456.322C177.634 461.011 175 467.37 175 474C175 480.63 177.634 486.989 182.322 491.678C187.011 496.366 193.37 499 200 499H250V549C250 555.63 252.634 561.989 257.322 566.678C262.011 571.366 268.37 574 275 574C281.63 574 287.989 571.366 292.678 566.678C297.366 561.989 300 555.63 300 549V499H350C356.63 499 362.989 496.366 367.678 491.678C372.366 486.989 375 480.63 375 474C375 467.37 372.366 461.011 367.678 456.322C362.989 451.634 356.63 449 350 449Z" fill="#77ACF1"/>
<path d="M575 803C535.444 803 496.776 791.27 463.886 769.294C430.996 747.318 405.362 716.082 390.224 679.537C375.087 642.992 371.126 602.778 378.843 563.982C386.56 525.186 405.608 489.549 433.579 461.579C461.549 433.608 497.186 414.56 535.982 406.843C574.778 399.126 614.992 403.087 651.537 418.224C688.082 433.362 719.318 458.996 741.294 491.886C763.27 524.776 775 563.444 775 603C775 656.043 753.929 706.914 716.421 744.421C678.914 781.929 628.043 803 575 803ZM575 453C545.333 453 516.332 461.797 491.665 478.28C466.997 494.762 447.771 518.189 436.418 545.598C425.065 573.007 422.095 603.167 427.882 632.264C433.67 661.361 447.956 688.088 468.934 709.066C489.912 730.044 516.639 744.33 545.737 750.118C574.834 755.906 604.994 752.935 632.403 741.582C659.812 730.229 683.238 711.003 699.721 686.336C716.203 661.668 725 632.667 725 603C725 563.218 709.197 525.065 681.066 496.934C652.936 468.804 614.783 453 575 453Z" fill="#1E589D"/>
<path d="M550.145 678C546.855 678.019 543.593 677.388 540.547 676.144C537.501 674.9 534.731 673.067 532.395 670.75C530.052 668.426 528.192 665.661 526.923 662.614C525.653 659.568 525 656.3 525 653C525 649.7 525.653 646.432 526.923 643.386C528.192 640.339 530.052 637.574 532.395 635.25L575.145 592.75V528C575.145 521.37 577.779 515.011 582.467 510.322C587.156 505.634 593.515 503 600.145 503C606.775 503 613.134 505.634 617.823 510.322C622.511 515.011 625.145 521.37 625.145 528V603C625.164 606.29 624.533 609.552 623.289 612.598C622.045 615.644 620.212 618.414 617.895 620.75L567.895 670.75C565.559 673.067 562.789 674.9 559.743 676.144C556.697 677.388 553.435 678.019 550.145 678Z" fill="#77ACF1"/>
<g filter="url(#filter0_d_0_1)">
<path d="M89 153C43.2508 148.396 30.5755 138.1 26 109V47.5C35.1299 14.7369 46.4523 7.9385 70.5 3H483C511.182 14.2959 520.768 23.6353 524 47V114.5C513.446 144.045 498.273 150.914 461.5 153H89Z" fill="#1E589D"/>
<path d="M89 153C43.2508 148.396 30.5755 138.1 26 109V47.5C35.1299 14.7369 46.4523 7.9385 70.5 3H483C511.182 14.2959 520.768 23.6353 524 47V114.5C513.446 144.045 498.273 150.914 461.5 153H89Z" stroke="#1E589D" stroke-width="6"/>
</g>
<defs>
<filter id="filter0_d_0_1" x="19" y="0" width="512" height="164" filterUnits="userSpaceOnUse" color-interpolation-filters="sRGB">
<feFlood flood-opacity="0" result="BackgroundImageFix"/>
<feColorMatrix in="SourceAlpha" type="matrix" values="0 0 0 0 0 0 0 0 0 0 0 0 0 0 0 0 0 0 127 0" result="hardAlpha"/>
<feOffset dy="4"/>
<feGaussianBlur stdDeviation="2"/>
<feComposite in2="hardAlpha" operator="out"/>
<feColorMatrix type="matrix" values="0 0 0 0 0 0 0 0 0 0 0 0 0 0 0 0 0 0 0.25 0"/>
<feBlend mode="normal" in2="BackgroundImageFix" result="effect1_dropShadow_0_1"/>
<feBlend mode="normal" in="SourceGraphic" in2="effect1_dropShadow_0_1" result="shape"/>
</filter>
</defs>
</svg>
