<!DOCTYPE svg PUBLIC "-//W3C//DTD SVG 1.1//EN" "http://www.w3.org/Graphics/SVG/1.1/DTD/svg11.dtd">
<svg xmlns="http://www.w3.org/2000/svg" viewBox="0 0 512 512">
<path fill="#1ce3bb" stroke="#1ce3bb" d="M242 .612c-34.725 6.511-60.666 24.188-75.856 51.692C127.875 121.593 177.223 206 256 206c28.946 0 51.54-9.495 72.523-30.477 20.103-20.104 28.801-39.459 30.16-67.112C361.145 58.295 329.946 15.905 281 2.862c-7.33-1.953-32.758-3.42-39-2.25m-98 232.057c-47.154 5.191-84.926 38.772-95.256 84.685-2.457 10.917-3.96 141.071-1.814 157.016 2.344 17.415 12.629 30.146 28.87 35.733 8.615 2.964 351.785 2.964 360.4 0 16.241-5.587 26.526-18.318 28.87-35.733 2.146-15.945.643-146.099-1.814-157.016-9.315-41.404-41.198-73.188-83.256-82.998-6.884-1.606-16.744-1.763-120-1.911-61.875-.089-114.075.012-116 .224" fill-rule="evenodd"/>
<path fill="#1ddeb7" stroke="#1ddeb7" d="M236.785 1.916c-39.023 8.507-67.636 34.056-79.048 70.584-22.694 72.64 40.606 145.067 115.357 131.99 73.989-12.943 109.667-96.497 68.07-159.41C319.54 12.376 274.412-6.286 236.785 1.916M250 16.655c-34.974 3.692-61.868 23.547-74.287 54.845C153.28 128.033 195.006 189.207 256 189.207c69.381 0 110.018-76.691 71.395-134.736C310.916 29.706 278.129 13.686 250 16.655M144 233.016c-42.168 3.918-78.423 32.916-91.873 73.484-5.072 15.295-5.248 18.863-4.925 99.5l.298 74.5 3.138 6.623c5.497 11.603 14.175 19.194 26.175 22.901 10.035 3.1 348.339 3.1 358.374 0 12-3.707 20.678-11.298 26.175-22.901l3.138-6.623.298-74.5c.323-80.637.147-84.205-4.925-99.5-12.175-36.721-41.405-62.776-80.873-72.088-8.179-1.93-215.969-3.164-235-1.396m-3 16.664c-40.918 7.078-71.278 38.135-76.918 78.684-1.803 12.964-1.464 142.993.389 149.204 1.999 6.698 6.444 11.752 13.299 15.118l5.73 2.814 26.75.323 26.75.322.032-60.322c.024-45.842.324-60.704 1.25-61.91 2.064-2.689 5.664-4.084 8.775-3.4 6.149 1.35 5.943-.908 5.943 65.21V496h206v-59.918c0-32.955.28-60.647.621-61.537 1.779-4.637 9.554-5.42 13.351-1.344 1.991 2.136 2.028 3.284 2.028 62.56v60.384l26.75-.322 26.75-.323 5.73-2.814c6.855-3.366 11.3-8.42 13.299-15.118 1.853-6.211 2.192-136.24.389-149.204-5.107-36.715-29.253-64.684-65.73-76.136L373.5 249.5l-115-.126c-63.25-.069-116.125.069-117.5.306" fill-rule="evenodd"/>
<path fill="#fbfbfb" stroke="#fbfbfb" d="M239.729 1.512c-69.693 11.717-108.464 90.035-74.232 149.949 49.455 86.555 176.172 64.842 192.026-32.903 11.04-68.07-49.76-128.485-117.794-117.046M243 17.168c-30.831 4.368-58.626 27.745-69.091 58.11-23.001 66.739 41.154 131.748 108.794 110.24 25.44-8.089 47.726-30.375 55.815-55.815C358.01 68.403 306.845 8.122 243 17.168M139 233.663c-47.056 7.872-82.541 42.359-90.491 87.946-2.611 14.971-2.212 151.903.467 160.578 4.551 14.736 17 25.964 31.924 28.794 7.407 1.405 342.793 1.405 350.2 0 14.924-2.83 27.373-14.058 31.924-28.794 2.679-8.675 3.078-145.607.467-160.578-7.23-41.462-37.223-73.873-79.491-85.901-7.449-2.12-8.293-2.135-125-2.299-64.625-.09-118.625.024-120 .254m-6.5 17.763c-32.866 8.499-55.751 30.751-66.271 64.435l-2.698 8.639-.307 75.218c-.349 85.609-.795 80.814 8.294 89.192 6.947 6.403 10.838 7.09 40.164 7.09H137V376.112l2.25-2.501c3.319-3.69 8.493-3.876 11.711-.422 2.005 2.152 2.039 3.186 2.039 62.5V496h206v-60.311c0-68.466-.465-64.689 7.966-64.689 8.414 0 8.034-3.078 8.034 65.135V496h25.318c29.326 0 33.217-.687 40.164-7.09 9.089-8.378 8.643-3.583 8.294-89.192l-.307-75.218-2.698-8.639c-10.575-33.861-33.541-56.083-66.638-64.479L369.744 249l-114.122.049-114.122.049-9 2.328" fill-rule="evenodd"/>
<path fill="#040404" stroke="#040404" d="M244 1.118C173.827 9.146 132.31 86.57 164.626 149.14c38.826 75.172 145.102 74.961 182.981-.363 32.058-63.752-9.588-139.752-80.941-147.708C256.037-.116 254.759-.113 244 1.118m-6 16.859c-80.726 17.437-93.946 127.085-19.711 163.488 22.475 11.021 52.947 11.021 75.422 0 31.805-15.596 51.072-48.331 48.999-83.253C339.534 44.699 290.001 6.744 238 17.977M135.016 234.534c-43.99 7.958-79.268 44.077-86.479 88.539-2.244 13.833-2.282 147.645-.045 156.234 4.5 17.277 17.022 28.917 34.121 31.717 7.951 1.302 338.823 1.302 346.774 0 17.099-2.8 29.621-14.44 34.121-31.717 2.237-8.589 2.199-142.401-.045-156.234-7.262-44.778-42.703-80.827-87.072-88.564-12.166-2.122-229.633-2.099-241.375.025m10.484 14.124c-39.196 5.106-67.799 29.286-79.662 67.342l-2.338 7.5V401c0 86.314-.534 79.671 7.005 87.184 7.19 7.166 7.778 7.282 38.745 7.611l27.75.294v-59.094c0-62.442.085-63.662 4.545-65.374 3.639-1.396 7.322-.606 9.382 2.014 2.045 2.599 2.073 3.45 2.073 62.5V496h206v-59.865c0-59.05.028-59.901 2.073-62.5 2.06-2.62 5.743-3.41 9.382-2.014 4.46 1.712 4.545 2.932 4.545 65.374v59.094l27.75-.294c30.967-.329 31.555-.445 38.745-7.611 7.539-7.513 7.005-.87 7.005-87.184v-77.5l-2.338-7.5c-10.611-34.04-33.44-56.063-67.662-65.276-7.947-2.14-8.741-2.155-119-2.306-61.05-.083-112.35.025-114 .24" fill-rule="evenodd"/>
</svg>